<?xml version="1.0" encoding="utf-8"?>
<!-- Generator: Adobe Illustrator 19.2.1, SVG Export Plug-In . SVG Version: 6.00 Build 0)  -->
<!DOCTYPE svg PUBLIC "-//W3C//DTD SVG 1.1//EN" "http://www.w3.org/Graphics/SVG/1.1/DTD/svg11.dtd">
<svg version="1.1" id="Layer_1" xmlns:sketch="http://www.bohemiancoding.com/sketch/ns"
	 xmlns="http://www.w3.org/2000/svg" xmlns:xlink="http://www.w3.org/1999/xlink" x="0px" y="0px" width="200px" height="200px"
	 viewBox="0 0 200 200" style="enable-background:new 0 0 200 200;" xml:space="preserve">
<title>IconGrid</title>
<description>Created with Sketch (http://www.bohemiancoding.com/sketch)</description>
<path id="GitHub" sketch:type="MSShapeGroup" style="fill:#444444;" d="M0,100c0,55.2,44.8,100,100,100s100-44.8,100-100
	S155.2,0,100,0S0,44.8,0,100z M150.7,25.4c2.1,3.2,3.3,12.5,2.5,19.2l-0.5,4.3l2.6,3.1c5.1,6.2,7.9,13.7,8.5,22.7
	c0.3,5-0.4,16.8-1.3,20.8c-0.3,1.3-0.4,2.5-0.3,2.6s4.7,0,10.2-0.3c5.9-0.3,10.8-0.3,11.8-0.1c1.3,0.3-1.3,0.5-9.3,0.7
	c-6.2,0.1-11.8,0.5-12.4,0.8c-0.8,0.3-1.4,1-1.7,2c-0.5,1.8-1.7,1.6,11.3,2.2c5.4,0.3,10.5,0.7,11.4,0.9c2.2,0.6,1,0.6-3,0.1
	c-1.8-0.2-7.1-0.5-11.9-0.5l-8.6-0.1l-1.6,2.7c-2.3,4-8.4,9.9-12.4,11.9c-4.8,2.5-12.3,4.9-18.9,5.9c-3.2,0.5-6.1,1.1-6.4,1.2
	c-0.4,0.2,0,0.9,1.5,2.5c2.4,2.6,3.6,4.8,4.7,8.5c0.6,2,0.8,5.6,1.1,17.1c0.3,14,0.3,14.5-0.6,14.8c-2.8,0.8-7.9,2.2-8.4,2.2
	c-0.4,0-0.6-3.5-0.7-12.9c-0.2-13.5-0.4-15.2-2.4-16.8c-0.7-0.6-0.8,0.5-0.8,15v15.6l-3.1,0.3c-1.7,0.2-4,0.4-5,0.4l-1.9,0l-0.3-8.4
	c-0.2-4.6-0.3-12.1-0.4-16.7l-0.1-8.3h-1.4h-1.4v16.8v16.8l-3.8-0.1c-2.1,0-4.5-0.2-5.4-0.3l-1.5-0.2v-16.1c0-14.6-0.1-16-0.7-15.5
	c-2.2,1.8-2.3,2.7-2.4,17.3l-0.2,13.9l-1.7-0.3c-0.9-0.2-3.1-0.7-4.7-1.1l-3-0.8l-0.1-9l-0.1-9l-2.3,0.3c-4.2,0.6-11.8,0.4-14.3-0.4
	c-6.2-1.8-9.9-5.2-13.2-11.9c-2.7-5.6-5.2-9-8.9-11.9c-3.8-3.1-4.5-4.2-3.2-4.9c0.5-0.3,2-0.5,3.4-0.5c2.3,0,6.5,1.9,9.1,4.3
	c1.2,1.1,3,3.2,4.2,4.8c4.8,6.7,9.8,9.4,16.6,8.9c3.9-0.3,8.7-1.7,9.2-2.7c0.2-0.4,0.8-1.9,1.4-3.4c0.7-1.8,2-3.7,3.6-5.5
	c2.4-2.6,2.5-2.7,1.4-2.9c-0.6-0.1-3.6-0.7-6.7-1.2c-11.4-2-19.8-5.8-26.1-11.8c-2.1-2-4.5-4.7-5.4-6l-1.5-2.4l-10,0.3
	c-5.6,0.2-11.7,0.6-13.8,1c-3.4,0.6-4.5,0.6-3.9,0.1c0.4-0.4,13.9-1.6,20.6-1.9c3.5-0.2,6.4-0.5,6.4-0.7s-0.3-1-0.7-1.8
	c-0.9-1.8-2.2-2-16.2-1.8c-6.3,0.1-11.5,0-11.5-0.2c0-0.6,9.3-1,17.9-0.7c8.2,0.3,8.8,0.2,8.5-0.5c-0.2-0.4-0.8-2.6-1.3-4.8
	c-0.9-3.5-1-5.2-1-14.2c0-9.6,0.1-10.5,1.1-13.5c1.4-4.3,4-9.1,6.4-12.2l1.9-2.5L48.2,47c-1.1-4.8-0.9-12.3,0.5-17.5
	c1.3-4.8,1.5-4.9,5.4-4.6c5.1,0.4,11.5,3,19.6,7.8l3.7,2.2l3.7-0.9c11.3-2.7,27.5-3,39.6-0.6l3.7,0.7l3.8-2.4
	c5.3-3.2,10.4-5.5,14.9-6.6c2.2-0.5,3.8-0.8,4.9-0.9C149.4,24.2,150.1,24.6,150.7,25.4z M44.8,125.5c-1,0-1.3,0.2-1.3,0.8
	c0,1.3,1.2,1.7,2.6,0.9C47.1,126.6,46.3,125.5,44.8,125.5L44.8,125.5L44.8,125.5z M41.3,123.6c-0.9,0-1.2,0.2-1.2,0.8
	c0,1.3,1.1,1.7,2.3,0.9C43.3,124.7,42.6,123.6,41.3,123.6L41.3,123.6L41.3,123.6z M48.3,128.7c-1,0-1.5,0.6-1.2,1.5
	c0.4,1,2.8,0.8,3-0.3c0.1-0.5-0.3-0.9-1.1-1.1C48.8,128.8,48.5,128.7,48.3,128.7L48.3,128.7L48.3,128.7z M51.2,132.8
	c-1.7,0-2.3,0.9-1.2,1.7c1.1,0.8,2.6,0.3,2.6-0.8C52.5,133.1,52.2,132.8,51.2,132.8L51.2,132.8L51.2,132.8z M53.9,136.2
	c-0.1,0-0.1,0-0.2,0c-0.6,0.1-1,0.5-1.1,1.2c-0.1,0.9,0.1,1.1,1.3,1.1c0.8,0,1.5-0.2,1.7-0.5C56,137.2,55,136.2,53.9,136.2
	L53.9,136.2L53.9,136.2z M57.7,139.4c-1,0-1.6,0.7-1.3,1.6c0.4,1.1,2.9,0.8,2.9-0.5c0-0.6-0.4-1-1.1-1.1
	C58,139.4,57.9,139.4,57.7,139.4L57.7,139.4L57.7,139.4z M74.4,140.3c-0.4,0-1.1,0.3-1.4,0.7c-0.7,0.9,0.1,2.1,1.4,2.1
	c0.4,0,1.1-0.3,1.4-0.7C76.5,141.5,75.7,140.3,74.4,140.3L74.4,140.3L74.4,140.3z M68.8,141.2c-1,0.1-1.6,0.9-1.1,2.1
	c0.4,0.9,2.1,0.7,2.8-0.4c0.4-0.6,0.4-0.9-0.2-1.3C69.7,141.3,69.2,141.2,68.8,141.2L68.8,141.2L68.8,141.2z M63.3,141.3
	c-0.6,0-1.2,0.4-1.3,1c-0.3,1.5,1.7,2.2,2.7,1c0.5-0.6,0.5-0.8,0-1.4C64.3,141.5,63.8,141.3,63.3,141.3L63.3,141.3L63.3,141.3z"/>
</svg>
