<?xml version="1.0" encoding="utf-8"?>
<!-- Generator: Adobe Illustrator 19.2.1, SVG Export Plug-In . SVG Version: 6.00 Build 0)  -->
<!DOCTYPE svg PUBLIC "-//W3C//DTD SVG 1.1//EN" "http://www.w3.org/Graphics/SVG/1.1/DTD/svg11.dtd">
<svg version="1.1" id="Layer_1" xmlns:sketch="http://www.bohemiancoding.com/sketch/ns"
	 xmlns="http://www.w3.org/2000/svg" xmlns:xlink="http://www.w3.org/1999/xlink" x="0px" y="0px" width="200px" height="200px"
	 viewBox="0 0 200 200" style="enable-background:new 0 0 200 200;" xml:space="preserve">
<title>IconGrid</title>
<description>Created with Sketch (http://www.bohemiancoding.com/sketch)</description>
<path id="LinkedIn" sketch:type="MSShapeGroup" style="fill:#444444;" d="M100,0C44.8,0,0,44.8,0,100s44.8,100,100,100
	s100-44.8,100-100S155.2,0,100,0z M82.4,80.7h23.5v10.8h0.3c3.3-6.2,11.3-12.7,23.2-12.7c24.8,0,29.4,16.3,29.4,37.6v43.3h-24.5
	v-38.4c0-9.2-0.2-20.9-12.8-20.9c-12.8,0-14.7,10-14.7,20.3v39H82.4V80.7L82.4,80.7z M54.7,41.5c7.8,0,14.2,6.4,14.2,14.2
	c0,7.9-6.4,14.2-14.2,14.2c-7.9,0-14.2-6.4-14.2-14.2C40.5,47.9,46.9,41.5,54.7,41.5z M42.5,80.7H67v78.9H42.5V80.7L42.5,80.7z"/>
</svg>
