<?xml version="1.0" encoding="utf-8"?>
<!-- Generator: Adobe Illustrator 19.2.1, SVG Export Plug-In . SVG Version: 6.00 Build 0)  -->
<!DOCTYPE svg PUBLIC "-//W3C//DTD SVG 1.1//EN" "http://www.w3.org/Graphics/SVG/1.1/DTD/svg11.dtd">
<svg version="1.1" id="Layer_1" xmlns:sketch="http://www.bohemiancoding.com/sketch/ns"
	 xmlns="http://www.w3.org/2000/svg" xmlns:xlink="http://www.w3.org/1999/xlink" x="0px" y="0px" width="200px" height="200px"
	 viewBox="0 0 200 200" style="enable-background:new 0 0 200 200;" xml:space="preserve">
<title>IconGrid</title>
<description>Created with Sketch (http://www.bohemiancoding.com/sketch)</description>
<circle style="fill:#444444;" cx="100" cy="100" r="100"/>
<g>
	<path style="fill:#FFFFFF;" d="M168,131.5c0,3-0.8,5.7-2.2,8.2l-42.9-48l42.5-37.2c1.7,2.6,2.6,5.7,2.6,9L168,131.5L168,131.5z
		 M100,100.3l59.1-51.7c-2.4-1.3-5.2-2.1-8.1-2.1H49c-2.9,0-5.7,0.8-8.1,2.1L100,100.3z M116.5,97.2l-13.7,12c-0.8,0.7-1.8,1-2.8,1
		c-1,0-2-0.3-2.8-1l-13.7-12L40,145.9c2.6,1.6,5.7,2.6,9,2.6h102c3.3,0,6.4-1,9-2.6L116.5,97.2z M34.6,54.4c-1.7,2.6-2.6,5.7-2.6,9
		v68c0,3,0.8,5.7,2.2,8.2l42.9-48.1L34.6,54.4z"/>
</g>
</svg>
